<svg xmlns="http://www.w3.org/2000/svg" viewBox="0 0 24 24"><title>icon_Addtolist_24x24</title><path d="M11.49,2.51h3a.72.72,0,0,1,0,.67c-1,.17-1.41.94-1.88,1.9L11.13,7.94l2.44,5.41h.07L17.3,4.94c.46-1.11.42-1.65-.82-1.76a.71.71,0,0,1,0-.67h3.58a.71.71,0,0,1,0,.67c-1.26.17-1.47.94-1.88,1.9L13.64,15.53c-.13.31-.25.47-.46.47s-.34-.17-.44-.47L10.18,9.59,7.35,15.53c-.11.31-.25.47-.46.47s-.32-.17-.44-.47L2.31,5.06C1.72,3.61,1.69,3.3.6,3.2a.71.71,0,0,1,0-.68H4.64a.71.71,0,0,1,0,.67c-1.2.13-1.26.47-.77,1.64l3.54,8.5h.05L9.59,8.74,8,5.05C7.38,3.6,7.2,3.31,6.41,3.2a.72.72,0,0,1,0-.67H9.86a.71.71,0,0,1,0,.67c-.77.12-.73.47-.2,1.64l.9,2.08.08.09,1-2.08c.59-1.18.66-1.64-.16-1.76A.72.72,0,0,1,11.49,2.51Z"/><path d="M23,22.19l-3.5-2.62L16,22.19V14a1,1,0,0,1,1-1h5a1,1,0,0,1,1,1Z" style="fill:#36c"/></svg>